<svg width="149" height="32" viewBox="0 0 149 32" fill="none" xmlns="http://www.w3.org/2000/svg">
<rect x="0.5" y="0.5" width="40" height="30.2712" rx="2.5" fill="#FAFAFA" stroke="#0500EC"/>
<rect x="2.77979" y="6.25424" width="6.94915" height="7.64407" rx="1" fill="#4E8AD9"/>
<rect x="10.4238" y="17.3729" width="6.94915" height="7.64407" rx="1" fill="#4E8AD9"/>
<rect x="18.7627" y="6.94916" width="6.25424" height="8.33898" rx="1" fill="#4E8AD9"/>
<rect x="28.4917" y="17.3729" width="6.25424" height="7.64407" rx="1" fill="#4E8AD9"/>
<rect x="28.4917" y="6.25424" width="6.25424" height="7.64407" rx="1" fill="#4E8AD9"/>
<path d="M56.12 9.06V10.54H52.32V23H50.5V10.54H46.68V9.06H56.12ZM57.6803 17.48C57.6803 16.36 57.907 15.38 58.3603 14.54C58.8136 13.6867 59.4336 13.0267 60.2203 12.56C61.0203 12.0933 61.907 11.86 62.8803 11.86C63.8403 11.86 64.6736 12.0667 65.3803 12.48C66.087 12.8933 66.6136 13.4133 66.9603 14.04V12.04H68.8003V23H66.9603V20.96C66.6003 21.6 66.0603 22.1333 65.3403 22.56C64.6336 22.9733 63.807 23.18 62.8603 23.18C61.887 23.18 61.007 22.94 60.2203 22.46C59.4336 21.98 58.8136 21.3067 58.3603 20.44C57.907 19.5733 57.6803 18.5867 57.6803 17.48ZM66.9603 17.5C66.9603 16.6733 66.7936 15.9533 66.4603 15.34C66.127 14.7267 65.6736 14.26 65.1003 13.94C64.5403 13.6067 63.9203 13.44 63.2403 13.44C62.5603 13.44 61.9403 13.6 61.3803 13.92C60.8203 14.24 60.3736 14.7067 60.0403 15.32C59.707 15.9333 59.5403 16.6533 59.5403 17.48C59.5403 18.32 59.707 19.0533 60.0403 19.68C60.3736 20.2933 60.8203 20.7667 61.3803 21.1C61.9403 21.42 62.5603 21.58 63.2403 21.58C63.9203 21.58 64.5403 21.42 65.1003 21.1C65.6736 20.7667 66.127 20.2933 66.4603 19.68C66.7936 19.0533 66.9603 18.3267 66.9603 17.5ZM73.6959 13.82C74.0159 13.1933 74.4693 12.7067 75.0559 12.36C75.6559 12.0133 76.3826 11.84 77.2359 11.84V13.72H76.7559C74.7159 13.72 73.6959 14.8267 73.6959 17.04V23H71.8759V12.04H73.6959V13.82ZM89.3369 17.1C89.3369 17.4467 89.3169 17.8133 89.2769 18.2H80.5169C80.5835 19.28 80.9502 20.1267 81.6169 20.74C82.2969 21.34 83.1169 21.64 84.0769 21.64C84.8635 21.64 85.5169 21.46 86.0369 21.1C86.5702 20.7267 86.9435 20.2333 87.1569 19.62H89.1169C88.8235 20.6733 88.2369 21.5333 87.3569 22.2C86.4769 22.8533 85.3835 23.18 84.0769 23.18C83.0369 23.18 82.1035 22.9467 81.2769 22.48C80.4635 22.0133 79.8235 21.3533 79.3569 20.5C78.8902 19.6333 78.6569 18.6333 78.6569 17.5C78.6569 16.3667 78.8835 15.3733 79.3369 14.52C79.7902 13.6667 80.4235 13.0133 81.2369 12.56C82.0635 12.0933 83.0102 11.86 84.0769 11.86C85.1169 11.86 86.0369 12.0867 86.8369 12.54C87.6369 12.9933 88.2502 13.62 88.6769 14.42C89.1169 15.2067 89.3369 16.1 89.3369 17.1ZM87.4569 16.72C87.4569 16.0267 87.3035 15.4333 86.9969 14.94C86.6902 14.4333 86.2702 14.0533 85.7369 13.8C85.2169 13.5333 84.6369 13.4 83.9969 13.4C83.0769 13.4 82.2902 13.6933 81.6369 14.28C80.9969 14.8667 80.6302 15.68 80.5369 16.72H87.4569ZM96.1992 13.54H93.8992V23H92.0792V13.54H90.6592V12.04H92.0792V11.26C92.0792 10.0333 92.3926 9.14 93.0192 8.58C93.6592 8.00667 94.6792 7.72 96.0792 7.72V9.24C95.2792 9.24 94.7126 9.4 94.3792 9.72C94.0592 10.0267 93.8992 10.54 93.8992 11.26V12.04H96.1992V13.54ZM97.6413 17.48C97.6413 16.36 97.8679 15.38 98.3213 14.54C98.7746 13.6867 99.3946 13.0267 100.181 12.56C100.981 12.0933 101.868 11.86 102.841 11.86C103.801 11.86 104.635 12.0667 105.341 12.48C106.048 12.8933 106.575 13.4133 106.921 14.04V12.04H108.761V23H106.921V20.96C106.561 21.6 106.021 22.1333 105.301 22.56C104.595 22.9733 103.768 23.18 102.821 23.18C101.848 23.18 100.968 22.94 100.181 22.46C99.3946 21.98 98.7746 21.3067 98.3213 20.44C97.8679 19.5733 97.6413 18.5867 97.6413 17.48ZM106.921 17.5C106.921 16.6733 106.755 15.9533 106.421 15.34C106.088 14.7267 105.635 14.26 105.061 13.94C104.501 13.6067 103.881 13.44 103.201 13.44C102.521 13.44 101.901 13.6 101.341 13.92C100.781 14.24 100.335 14.7067 100.001 15.32C99.6679 15.9333 99.5013 16.6533 99.5013 17.48C99.5013 18.32 99.6679 19.0533 100.001 19.68C100.335 20.2933 100.781 20.7667 101.341 21.1C101.901 21.42 102.521 21.58 103.201 21.58C103.881 21.58 104.501 21.42 105.061 21.1C105.635 20.7667 106.088 20.2933 106.421 19.68C106.755 19.0533 106.921 18.3267 106.921 17.5ZM118.817 15.82C119.324 15.9 119.784 16.1067 120.197 16.44C120.624 16.7733 120.957 17.1867 121.197 17.68C121.45 18.1733 121.577 18.7 121.577 19.26C121.577 19.9667 121.397 20.6067 121.037 21.18C120.677 21.74 120.15 22.1867 119.457 22.52C118.777 22.84 117.97 23 117.037 23H111.837V9.06H116.837C117.784 9.06 118.59 9.22 119.257 9.54C119.924 9.84667 120.424 10.2667 120.757 10.8C121.09 11.3333 121.257 11.9333 121.257 12.6C121.257 13.4267 121.03 14.1133 120.577 14.66C120.137 15.1933 119.55 15.58 118.817 15.82ZM113.657 15.08H116.717C117.57 15.08 118.23 14.88 118.697 14.48C119.164 14.08 119.397 13.5267 119.397 12.82C119.397 12.1133 119.164 11.56 118.697 11.16C118.23 10.76 117.557 10.56 116.677 10.56H113.657V15.08ZM116.877 21.5C117.784 21.5 118.49 21.2867 118.997 20.86C119.504 20.4333 119.757 19.84 119.757 19.08C119.757 18.3067 119.49 17.7 118.957 17.26C118.424 16.8067 117.71 16.58 116.817 16.58H113.657V21.5H116.877ZM123.423 17.48C123.423 16.36 123.649 15.38 124.103 14.54C124.556 13.6867 125.176 13.0267 125.963 12.56C126.763 12.0933 127.649 11.86 128.623 11.86C129.583 11.86 130.416 12.0667 131.123 12.48C131.829 12.8933 132.356 13.4133 132.703 14.04V12.04H134.543V23H132.703V20.96C132.343 21.6 131.803 22.1333 131.083 22.56C130.376 22.9733 129.549 23.18 128.603 23.18C127.629 23.18 126.749 22.94 125.963 22.46C125.176 21.98 124.556 21.3067 124.103 20.44C123.649 19.5733 123.423 18.5867 123.423 17.48ZM132.703 17.5C132.703 16.6733 132.536 15.9533 132.203 15.34C131.869 14.7267 131.416 14.26 130.843 13.94C130.283 13.6067 129.663 13.44 128.983 13.44C128.303 13.44 127.683 13.6 127.123 13.92C126.563 14.24 126.116 14.7067 125.783 15.32C125.449 15.9333 125.283 16.6533 125.283 17.48C125.283 18.32 125.449 19.0533 125.783 19.68C126.116 20.2933 126.563 20.7667 127.123 21.1C127.683 21.42 128.303 21.58 128.983 21.58C129.663 21.58 130.283 21.42 130.843 21.1C131.416 20.7667 131.869 20.2933 132.203 19.68C132.536 19.0533 132.703 18.3267 132.703 17.5ZM142.958 11.84C144.291 11.84 145.371 12.2467 146.198 13.06C147.025 13.86 147.438 15.02 147.438 16.54V23H145.638V16.8C145.638 15.7067 145.365 14.8733 144.818 14.3C144.271 13.7133 143.525 13.42 142.578 13.42C141.618 13.42 140.851 13.72 140.278 14.32C139.718 14.92 139.438 15.7933 139.438 16.94V23H137.618V12.04H139.438V13.6C139.798 13.04 140.285 12.6067 140.898 12.3C141.525 11.9933 142.211 11.84 142.958 11.84Z" fill="#0500EC"/>
</svg>
