<svg width="70" height="70" viewBox="0 0 70 70" fill="none" xmlns="http://www.w3.org/2000/svg">
<g clip-path="url(#clip0_209_1585)">
<path fill-rule="evenodd" clip-rule="evenodd" d="M58.3989 59.8636C65.0024 53.641 69.125 44.8136 69.125 35.0238C69.125 16.1772 53.8468 0.898926 35 0.898926C16.1533 0.898926 0.875 16.1772 0.875 35.0238C0.875 44.8136 4.99748 53.641 11.6012 59.8636C17.7104 65.6208 25.9432 69.1488 35 69.1488C44.0569 69.1488 52.2897 65.6208 58.3989 59.8636ZM14.5079 55.3668C19.3186 49.3661 26.7106 45.5238 35 45.5238C43.2894 45.5238 50.6814 49.3661 55.4922 55.3668C50.2611 60.6361 43.0115 63.8988 35 63.8988C26.9885 63.8988 19.7391 60.6361 14.5079 55.3668ZM48.125 24.5239C48.125 31.7726 42.2488 37.6488 35 37.6488C27.7513 37.6488 21.875 31.7726 21.875 24.5239C21.875 17.2752 27.7513 11.3989 35 11.3989C42.2488 11.3989 48.125 17.2752 48.125 24.5239Z" fill="#0F172A"/>
</g>
<defs>
<clipPath id="clip0_209_1585">
<rect width="70" height="70" fill="white"/>
</clipPath>
</defs>
</svg>
